<?xml version="1.0" ?><!DOCTYPE svg  PUBLIC '-//W3C//DTD SVG 1.1//EN'  'http://www.w3.org/Graphics/SVG/1.1/DTD/svg11.dtd'><svg enable-background="new 0 0 512 512" height="48px" id="Layer_1" version="1.1" viewBox="0 0 512 512" width="48px" xml:space="preserve" xmlns="http://www.w3.org/2000/svg" xmlns:xlink="http://www.w3.org/1999/xlink"><g><polygon clip-rule="evenodd" fill="#262629" fill-rule="evenodd" points="0,0 435.199,0 512,76.799 512,512 76.799,512 0,435.199     "/><polygon clip-rule="evenodd" fill="#5F5E64" fill-rule="evenodd" points="435.199,0 512,76.799 435.199,76.799  "/><polygon clip-rule="evenodd" fill="#0E0B0F" fill-rule="evenodd" points="435.199,76.799 512,153.602 512,76.799  "/><polygon clip-rule="evenodd" fill="#5F5E64" fill-rule="evenodd" points="76.799,512 0,435.199 76.799,435.199  "/><polygon clip-rule="evenodd" fill="#0E0B0F" fill-rule="evenodd" points="153.598,512 76.799,435.199 76.799,512  "/><path clip-rule="evenodd" d="M112.076,416.047l82.037-33.66l1.01-0.406   c55.635,25.402,120.545,13.512,164.076-29.02c27.016-26.41,44.145-63.5,44.961-104.822v-0.404l0,0   c0.598-41.121-15.32-78.611-41.531-106.027c-26.406-27.414-63.094-44.947-104.211-45.553l-0.404-0.203v0.203   c-40.721-0.605-78.008,15.52-105.221,42.129c-27.012,26.607-44.145,63.697-44.949,105.018v0.404l0,0   c-0.402,31.646,8.867,61.881,26.607,87.482l-0.201,0.605L112.076,416.047z" fill="#E9E9E9" fill-rule="evenodd"/><path clip-rule="evenodd" d="M166.301,365.652l30.033-12.289   c17.135,9.676,36.686,15.316,57.65,15.719c67.324,1.012,122.754-53.215,123.965-121.348   c1.215-68.133-52.605-124.369-119.936-125.373c-67.326-1.213-122.758,53.211-123.965,121.344   c-0.406,31.041,10.479,59.873,29.025,81.838l-8.063,30.43l-4.236,15.934L166.301,365.652z" fill="#2E9846" fill-rule="evenodd"/><path clip-rule="evenodd" d="M243.904,264.465c-7.66-7.051-16.125-17.135-19.955-25.799   c-0.406-1.207-1.615-4.234,0.199-6.451c3.43-4.432,3.83-4.635,7.66-9.072c2.619-3.021,4.436-5.844,3.43-8.467l-12.705-33.053   c-1.004-2.422-4.43-2.625-8.26-2.828c-3.426,0-7.26-0.199-9.676,0.607c-5.844,2.014-17.336,17.131-18.744,28.223   c-3.229,24.188,18.744,56.031,40.516,75.992c21.77,20.148,55.635,39.098,79.42,33.664c10.887-2.418,24.996-15.121,26.406-21.172   c0.605-2.613,0-6.246-0.406-9.664c-0.398-3.836-1.004-6.859-3.426-7.867l-28.828-13.504c-2.418-1.211-5.035-0.203-7.656,3.023   c-3.227,4.227-4.637,5.84-8.266,10.277c-2.016,2.621-3.43,4.438-5.645,4.844c-2.621,0.398-5.844-1.02-6.648-1.219   C262.449,278.973,251.764,271.52,243.904,264.465L243.904,264.465z" fill="#FFFFFF" fill-rule="evenodd"/><path clip-rule="evenodd" d="M208.023,512H512V291.074L362.629,141.707   c26.211,27.416,42.129,64.906,41.531,106.027l0,0v0.404c-0.816,41.322-17.945,78.412-44.961,104.822   c-43.531,42.531-108.441,54.422-164.076,29.02l-1.01,0.406l-82.037,33.66L208.023,512z" fill="#0E0B0F" fill-rule="evenodd"/></g></svg>